<?xml version="1.0" encoding="utf-8"?><svg viewBox="0 0 177 177" xmlns="http://www.w3.org/2000/svg" xmlns:xlink="http://www.w3.org/1999/xlink"><style>:root>svg{display:none}:root>svg:target{display:block}</style><svg viewBox="0 0 14 16" id="arrows--arrow" xmlns="http://www.w3.org/2000/svg"><path d="M6.7 15.75L5.58 14.6l6.12-6.32-6.12-6.32L6.7.8l7.25 7.48-7.25 7.47zm6.13-6.45H.93V7.25h11.9V9.3z"/></svg><svg viewBox="0 0 16 16" id="arrows--arrow-circle-thick" xmlns="http://www.w3.org/2000/svg"><path d="M0 8c0-4.41 3.59-8 8-8s8 3.59 8 8-3.59 8-8 8-8-3.59-8-8zm14 0c0-3.31-2.69-6-6-6S2 4.69 2 8s2.69 6 6 6 6-2.69 6-6zm-2 0L8 4v3H5v2h3v3l4-4z"/></svg><svg viewBox="0 0 33 33" id="arrows--arrow-circle-thin" xmlns="http://www.w3.org/2000/svg"><path d="M33 16.5C33 25.61 25.61 33 16.5 33S0 25.61 0 16.5 7.39 0 16.5 0 33 7.39 33 16.5zm-29.91 0c0 7.4 6.01 13.41 13.41 13.41S29.91 23.9 29.91 16.5 23.9 3.09 16.5 3.09 3.09 9.1 3.09 16.5zm15.99-5.79l5.16 4.64h-.01c.32.29.52.69.52 1.15 0 .46-.2.86-.52 1.15h.01l-5.16 4.64c-.28.24-.63.4-1.03.4-.86 0-1.55-.7-1.55-1.55 0-.46.2-.86.52-1.15h-.01l2.16-1.94H9.8c-.86 0-1.55-.7-1.55-1.55 0-.85.69-1.55 1.55-1.55h9.37l-2.16-1.94.01-.01c-.32-.28-.52-.68-.52-1.14 0-.86.69-1.55 1.55-1.55.4 0 .75.16 1.03.4z"/></svg><svg viewBox="0 0 8 14" id="arrows--arrow-short" xmlns="http://www.w3.org/2000/svg"><path d="M.35 1.76L5.59 7 .28 12.31c-.17.18-.28.42-.28.69 0 .55.45 1 1 1 .27 0 .51-.11.69-.28l6-6C7.88 7.54 8 7.28 8 7a.98.98 0 00-.31-.72l-6-6C1.51.11 1.27 0 1 0 .45 0 0 .45 0 1c0 .3.14.57.35.76z"/></svg><svg viewBox="0 0 42 42" id="features--arrows" xmlns="http://www.w3.org/2000/svg"><path d="M34.12 0L42 8.19l-7.88 7.56V0zM23.63 15.75L18.38 21V10.5c0-2.9 2.35-5.25 5.25-5.25h10.49v5.25H23.63v5.25zM7.87 42L0 33.81l7.87-7.56V42zm10.51-5.25H7.87V31.5h10.51v-5.25L23.63 21v10.5c0 2.9-2.36 5.25-5.25 5.25z"/></svg><svg viewBox="0 0 55 48" id="features--browser" xmlns="http://www.w3.org/2000/svg"><path d="M52.42 48H2.58C1.15 48 0 46.85 0 45.43V2.57C0 1.15 1.15 0 2.58 0h49.84C53.85 0 55 1.15 55 2.57v42.86c0 1.42-1.15 2.57-2.58 2.57zM5.16 2.57c-1.43 0-2.58 1.15-2.58 2.57s1.15 2.57 2.58 2.57a2.57 2.57 0 100-5.14zm7.73 0c-1.42 0-2.58 1.15-2.58 2.57s1.16 2.57 2.58 2.57c1.42 0 2.58-1.15 2.58-2.57s-1.16-2.57-2.58-2.57zm7.74 0c-1.43 0-2.58 1.15-2.58 2.57s1.15 2.57 2.58 2.57a2.57 2.57 0 100-5.14zm31.79 7.72H2.58v35.14h49.84V10.29z"/></svg><svg viewBox="0 0 50 40" id="features--cart" xmlns="http://www.w3.org/2000/svg"><path d="M49.79 8.81L42.76 24.5c-.34.77-1.09 1.32-1.98 1.38l-20.25 1.35 1.17 3.36h22.05c2.59 0 4.69 2.11 4.69 4.7 0 2.6-2.1 4.71-4.69 4.71-2.59 0-4.69-2.11-4.69-4.71H17.19c0 2.6-2.1 4.71-4.69 4.71-2.59 0-4.69-2.11-4.69-4.71 0-2.59 2.1-4.7 4.69-4.7h4.24L7.71 4.71H2.34C1.05 4.71 0 3.65 0 2.35 0 1.05 1.05 0 2.34 0h7.04c1.02 0 1.88.66 2.2 1.58h.01l1.36 3.91h34.71a2.345 2.345 0 012.13 3.32zm-35.2 1.39l4.34 12.42 20.14-1.34 4.96-11.08H14.59z"/></svg><svg viewBox="0 0 38 38" id="features--plane" xmlns="http://www.w3.org/2000/svg"><path d="M0 14.31L38 0l-7.13 26.12L19 21.38 32.98 4.44 11.88 19 0 14.31zm16.62 9.44l4.76 2.37L16.79 38l-.17-14.25z"/></svg><svg viewBox="0 0 177 177" id="logo" xmlns="http://www.w3.org/2000/svg"><path d="M93.1 30.47l45.79 105.95-80.8-46.96 25.49-58.99c1.6-1.56 3.18-2.22 4.74-1.96 1.6-.28 3.19.37 4.78 1.96zm-6.97 77.91L37.8 136.42l19.42-44.85 28.91 16.81zM88.48 177c-24.29 0-45.34-8.73-62.55-25.93C8.73 133.86 0 112.8 0 88.48c0-24.29 8.73-45.34 25.93-62.54C43.14 8.73 64.19 0 88.48 0c24.32 0 45.38 8.73 62.58 25.94C168.27 43.14 177 64.19 177 88.48c0 24.32-8.73 45.38-25.94 62.58C133.86 168.27 112.8 177 88.48 177zm0-167.6c-22.02 0-40.3 7.58-55.9 23.18C16.98 48.18 9.4 66.47 9.4 88.48c0 22.04 7.58 40.34 23.18 55.94 15.6 15.6 33.89 23.18 55.9 23.18 22.04 0 40.34-7.58 55.94-23.18 15.6-15.6 23.18-33.9 23.18-55.94 0-22.01-7.58-40.3-23.18-55.9-15.6-15.6-33.9-23.18-55.94-23.18z"/></svg><svg viewBox="0 0 11 16" id="socials--fb" xmlns="http://www.w3.org/2000/svg"><path d="M6.29 0c-1.75 0-3 1.38-3 3.08V6H.21v3h3.08v7h3.08V9h3.15l.64-3H6.37V4.08c0-.34.6-1.08.94-1.08h2.14V0H6.29z"/></svg><svg viewBox="0 0 16 13" id="socials--twitter" xmlns="http://www.w3.org/2000/svg"><path d="M16 1.54c-.59.26-1.22.44-1.89.52.68-.41 1.2-1.05 1.45-1.82-.64.38-1.34.65-2.09.8a3.284 3.284 0 00-5.68 2.24c0 .26.03.51.09.75A9.323 9.323 0 011.11.6a3.28 3.28 0 00-.44 1.65c0 1.14.75 2.14 1.64 2.73C1.77 4.96 1 4.82 1 4.57v.04c0 1.59.95 2.92 2.45 3.22-.27.08-.65.12-.95.12-.22 0-.47-.03-.67-.06.42 1.3 1.61 2.25 3.05 2.28a6.61 6.61 0 01-4.09 1.4c-.27 0-.53-.01-.79-.04C1.45 12.46 3.18 13 5.03 13c6.04 0 9.34-5 9.34-9.34 0-.14 0-.28-.01-.42.64-.47 1.2-1.04 1.64-1.7z"/></svg></svg>